<svg width="58" height="58" viewBox="0 0 58 58" fill="none" xmlns="http://www.w3.org/2000/svg">
<path fill-rule="evenodd" clip-rule="evenodd" d="M29.0002 57.6C44.906 57.6 57.8002 44.7058 57.8002 28.8C57.8002 12.8942 44.906 0 29.0002 0C13.0944 0 0.200195 12.8942 0.200195 28.8C0.200195 44.7058 13.0944 57.6 29.0002 57.6ZM36.5387 35.5298V21.7904H22.7992C22.3529 21.7904 21.991 22.1522 21.991 22.5986V36.338H35.7305C36.1768 36.338 36.5387 35.9762 36.5387 35.5298ZM22.7992 20.174H36.5387V16.133C36.5387 15.6866 36.1768 15.3248 35.7305 15.3248H16.3336C15.8872 15.3248 15.5254 15.6866 15.5254 16.133V35.5298C15.5254 35.9762 15.8872 36.338 16.3336 36.338H20.3746V22.5986C20.3746 21.2595 21.4601 20.174 22.7992 20.174ZM42.1961 21.7904H38.1551V35.5298C38.1551 36.8689 37.0695 37.9545 35.7305 37.9545H21.991V41.9955C21.991 42.4418 22.3529 42.8037 22.7992 42.8037H42.1961C42.6424 42.8037 43.0043 42.4418 43.0043 41.9955V22.5986C43.0043 22.1522 42.6424 21.7904 42.1961 21.7904Z" fill="white"/>
</svg>
