<svg width="58" height="58" viewBox="0 0 58 58" fill="none" xmlns="http://www.w3.org/2000/svg">
<path fill-rule="evenodd" clip-rule="evenodd" d="M29.0002 57.6C44.906 57.6 57.8002 44.7058 57.8002 28.8C57.8002 12.8942 44.906 0 29.0002 0C13.0944 0 0.200195 12.8942 0.200195 28.8C0.200195 44.7058 13.0944 57.6 29.0002 57.6ZM41.919 38.8756V19.2955L41.9177 19.2955H44.364V19.2929C44.5594 19.2929 44.7548 19.2182 44.9014 19.0675C45.1932 18.7699 45.1893 18.292 44.8924 17.9996L38.6179 11.8421C38.3248 11.5548 37.8556 11.5523 37.5612 11.8421L31.3288 17.9597C31.1643 18.0975 31.0601 18.3062 31.0601 18.538C31.0601 18.9567 31.3995 19.2955 31.816 19.2955H34.2624V38.8756C34.2624 39.2943 34.6018 39.633 35.0183 39.633H41.1631C41.5809 39.633 41.919 39.2942 41.919 38.8756ZM19.7835 27.4059H13.6387C13.2209 27.4059 12.8828 27.7459 12.8828 28.1633V38.8742C12.8828 39.2929 13.2222 39.6317 13.6387 39.6317H19.7835C20.2014 39.6317 20.5394 39.2929 20.5394 38.8742V28.1633C20.5394 27.7446 20.2013 27.4059 19.7835 27.4059ZM30.4725 23.6804H24.3277C23.9098 23.6804 23.5718 24.0192 23.5718 24.4379V38.8755C23.5718 39.2942 23.9112 39.633 24.3277 39.633H30.4725C30.8903 39.633 31.2284 39.2942 31.2284 38.8755V24.4379C31.2284 24.0192 30.8903 23.6804 30.4725 23.6804Z" fill="white"/>
</svg>
