<svg width="58" height="58" viewBox="0 0 58 58" fill="none" xmlns="http://www.w3.org/2000/svg">
<path fill-rule="evenodd" clip-rule="evenodd" d="M29.0002 57.6C44.906 57.6 57.8002 44.7058 57.8002 28.8C57.8002 12.8942 44.906 0 29.0002 0C13.0944 0 0.200195 12.8942 0.200195 28.8C0.200195 44.7058 13.0944 57.6 29.0002 57.6ZM19.6721 44.9395C21.3503 35.9509 27.3483 30.6691 34.0585 25.0888C27.6114 27.131 23.2707 31.7889 17.2874 42.491C11.8866 31.838 16.3914 20.3764 27.0397 17.9561C32.6042 16.6917 38.0421 15.2619 43.5319 12.6826C43.4898 13.9706 43.4771 15.2562 43.4646 16.5301C43.4004 23.0317 43.3392 29.2315 39.3941 33.927C36.7221 37.1084 32.6644 38.795 28.4515 40.546C25.4561 41.7911 22.3822 43.0687 19.6721 44.9395Z" fill="white"/>
</svg>
