<svg width="831" height="167" viewBox="0 0 831 167" fill="none" xmlns="http://www.w3.org/2000/svg">
<path d="M149.781 2C149.781 21.5 161.581 32.5969 176.579 43.5044C193.016 55.4587 209.461 62.7444 232.9 65.116C241.891 66.0257 247.028 65.7921 256.04 65.116C265.676 64.3929 271.824 62.8712 280.489 61.2958C289.206 59.7109 296.031 56.679 306.139 54.3102C322.275 50.5287 347.943 46.9972 347.943 46.9972C347.943 46.9972 407.883 30.5166 443.667 41.5397C465.077 48.1349 482.838 49.9262 493.767 69.482C500.272 81.1221 495.809 90.4379 500.281 103C510.965 133.008 553.281 107 553.281 165" stroke="url(#paint0_linear_3629_611)" stroke-width="3" stroke-linecap="square"/>
<path d="M691.281 3C691.281 19 725.647 84 683.261 72.9749C674.555 70.7105 675.561 60.3545 675.293 51.3633C674.452 23.1609 719.281 38.8728 747.113 43.5046C772.567 47.7405 790.41 50.8776 807.582 70.137C820.865 85.0343 824.663 97.4322 827.556 117.18C829.169 128.188 828.791 134.6 827.665 145.668C826.87 153.494 824.147 154.5 824.147 165.5" stroke="url(#paint1_linear_3629_611)" stroke-width="3" stroke-linecap="square"/>
<path d="M691.282 2.5C693.782 121.5 592.959 36.55 528.149 33.7901C507.743 32.9211 476.194 27.7869 476.194 27.7869C476.194 27.7869 408.609 15.9275 368.9 29.315C345.942 37.0553 330.799 41.2556 314.544 59.2219C303.114 71.8554 293.478 97.4242 293.478 97.4242C293.478 97.4242 285.133 122.186 283.655 138.683C282.737 148.919 283.655 159 283.655 165" stroke="url(#paint2_linear_3629_611)" stroke-width="3" stroke-linecap="square"/>
<path d="M148.782 2.5C148.782 23.463 131.448 40.6329 110.871 55.7293C83.0546 76.1373 53.4252 91.21 24.2065 72.8658C13.8916 66.3898 6.04829 62.0604 2.59488 50.381C-4.58467 26.0997 55.3574 28.6694 67.4296 50.9267C73.016 61.2262 75.7695 70.7331 69.8309 80.8337C65.1202 88.8459 49.7474 93.6041 49.7474 93.6041C49.7474 93.6041 41.9225 96.9173 37.9593 100.481C33.4486 104.536 31.8694 108.299 29.1182 113.251C20.8372 128.157 16.2818 147.876 16.2818 165" stroke="url(#paint3_linear_3629_611)" stroke-width="3" stroke-linecap="square"/>
<path d="M148.781 2C148.781 14.5 150.402 36.7486 153.766 48.5253C159.133 67.3098 173.994 76.9041 192.187 76.9041C216.916 76.9041 239.543 79.4488 254.075 100.917C262.231 112.966 257.856 123.641 264.007 136.827C269.597 148.809 282.781 154.5 282.781 165" stroke="url(#paint4_linear_3629_611)" stroke-width="3" stroke-linecap="square"/>
<path d="M151.281 3C151.281 19.5 173.523 25.822 173.523 25.822C173.523 25.822 223.087 49.9906 256.476 61.1864C323.727 83.7365 374.668 90.6568 435.699 90.6568C463.578 90.6568 485.937 83.4518 512.322 76.4674C520.828 74.2158 526.814 69.1382 536.553 65.5524C552.6 59.6444 562.259 58.1288 579.122 55.2924C623.265 47.8673 650.566 45.3934 693.729 57.2571C720.696 64.6694 737.557 68.7725 759 86.7274C773.864 99.1731 778.078 110.21 790.435 125.148C803.37 140.784 823.781 155.5 823.781 165" stroke="url(#paint5_linear_3629_611)" stroke-width="3" stroke-linecap="square"/>
<path d="M691.781 3C691.781 18 686.957 25.9687 676.047 34.1173C670.154 38.5182 665.863 39.7994 658.692 41.4303C649.755 43.4624 635.225 41.5394 635.225 41.5394C635.225 41.5394 592.639 32.6435 572.355 27.7866C552.054 22.926 547.979 34.1163 538.082 45.4688C522.961 62.8129 528.7 81.0885 531.096 103.973C533.763 129.443 553.781 146.854 553.781 165.5" stroke="url(#paint6_linear_3629_611)" stroke-width="3" stroke-linecap="square"/>
<path d="M691.781 3C691.781 16 679.724 41.9143 658.781 48.9617C632.878 57.6785 623.474 10.6324 596.781 16.5C577.934 20.6429 575.658 38.8438 558.602 47.8702C526.344 64.9421 501.095 65.67 465.607 57.1479C455.895 54.8157 449.241 51.5516 441.376 48.9617C426.662 44.1168 411.155 42.3411 396.406 37.6102C381.491 32.826 349.254 25.8221 349.254 25.8221C349.254 25.8221 319.912 19.3727 300.791 17.9633C255.317 14.6114 227.064 15.86 185.093 33.6808C146.218 50.1868 132.045 72.8223 98.8649 98.9522C79.8592 113.919 65.4767 123.779 50.6209 137.809C45.3292 142.807 39.8787 146.151 33.0478 151.562C26.4703 156.773 16.2812 149.5 16.2812 165" stroke="url(#paint7_linear_3629_611)" stroke-width="3" stroke-linecap="square"/>
<defs>
<linearGradient id="paint0_linear_3629_611" x1="-103.219" y1="91" x2="951.281" y2="83.5" gradientUnits="userSpaceOnUse">
<stop stop-color="#009CDE"/>
<stop offset="1" stop-color="#64A70B"/>
</linearGradient>
<linearGradient id="paint1_linear_3629_611" x1="-112.219" y1="79.5" x2="950.781" y2="73" gradientUnits="userSpaceOnUse">
<stop stop-color="#009CDE"/>
<stop offset="1" stop-color="#64A70B"/>
</linearGradient>
<linearGradient id="paint2_linear_3629_611" x1="-103.219" y1="83.5" x2="947.781" y2="83.5" gradientUnits="userSpaceOnUse">
<stop stop-color="#009CDE"/>
<stop offset="1" stop-color="#64A70B"/>
</linearGradient>
<linearGradient id="paint3_linear_3629_611" x1="-108.719" y1="83.5" x2="949.281" y2="83.5" gradientUnits="userSpaceOnUse">
<stop stop-color="#009CDE"/>
<stop offset="1" stop-color="#64A70B"/>
</linearGradient>
<linearGradient id="paint4_linear_3629_611" x1="-109.719" y1="98" x2="952.281" y2="92.5" gradientUnits="userSpaceOnUse">
<stop stop-color="#009CDE"/>
<stop offset="1" stop-color="#64A70B"/>
</linearGradient>
<linearGradient id="paint5_linear_3629_611" x1="-107.719" y1="84" x2="946.781" y2="84" gradientUnits="userSpaceOnUse">
<stop stop-color="#009CDE"/>
<stop offset="1" stop-color="#64A70B"/>
</linearGradient>
<linearGradient id="paint6_linear_3629_611" x1="-105.219" y1="91" x2="947.781" y2="84.5" gradientUnits="userSpaceOnUse">
<stop stop-color="#009CDE"/>
<stop offset="1" stop-color="#64A70B"/>
</linearGradient>
<linearGradient id="paint7_linear_3629_611" x1="-109.719" y1="84.5" x2="945.781" y2="84.5" gradientUnits="userSpaceOnUse">
<stop stop-color="#009CDE"/>
<stop offset="1" stop-color="#64A70B"/>
</linearGradient>
</defs>
</svg>
