<svg width="58" height="58" viewBox="0 0 58 58" fill="none" xmlns="http://www.w3.org/2000/svg">
<path fill-rule="evenodd" clip-rule="evenodd" d="M57.8002 28.8C57.8002 44.7058 44.906 57.6 29.0002 57.6C13.0944 57.6 0.200195 44.7058 0.200195 28.8C0.200195 12.8942 13.0944 0 29.0002 0C44.906 0 57.8002 12.8942 57.8002 28.8ZM33.3032 25.0362C33.8169 27.2116 32.4707 29.3916 30.2953 29.9055C28.1199 30.4194 25.9411 29.0715 25.4277 26.8961C24.9139 24.7206 26.2601 22.5419 28.4355 22.0284C30.6109 21.5149 32.7909 22.8608 33.3032 25.0362ZM21.7969 36.7902C21.7969 34.0313 23.3222 31.6244 25.5753 30.3655C26.5932 31.2423 27.9174 31.7736 29.3634 31.7736C30.7318 31.7736 31.986 31.2979 32.9801 30.5067C35.0985 31.7971 36.5192 34.128 36.5192 36.7902V40.1627H21.7969V36.7902ZM40.5614 17.7473C42.6258 18.6035 43.6073 20.9708 42.751 23.0351C41.8964 25.0995 39.5292 26.081 37.4649 25.2247C35.3989 24.3701 34.419 22.0028 35.2737 19.9386C36.1299 17.8726 38.4971 16.8927 40.5614 17.7473ZM39.014 27.2924C40.3824 27.2924 41.6366 26.8167 42.6308 26.0255C44.7491 27.3212 46.1696 29.6454 46.1743 32.306V35.6786H38.5352C38.291 32.8086 36.7087 30.324 34.4111 28.8431C34.928 28.0075 35.2277 27.0213 35.2277 25.9653C35.2277 25.951 35.2265 25.9379 35.2253 25.9248C35.2241 25.9118 35.2229 25.8987 35.2229 25.8844C35.2229 25.8844 35.2229 25.8796 35.2277 25.8796C36.2425 26.7565 37.5648 27.2924 39.014 27.2924ZM21.0537 17.7501C23.1197 18.6047 24.0996 20.972 23.2449 23.0379C22.3887 25.1023 20.0215 26.0822 17.9572 25.2275C15.8928 24.3713 14.9113 22.004 15.7675 19.9398C16.6221 17.8754 18.9894 16.8939 21.0537 17.7501ZM23.2966 25.9681C23.2966 27.0241 23.5979 28.0056 24.1132 28.8459L24.1128 28.8456C21.8203 30.3284 20.2331 32.8113 19.9937 35.6843H12.3545V32.3118C12.3545 29.6498 13.7752 27.319 15.8935 26.0284C16.8877 26.8196 18.1419 27.2952 19.5102 27.2952C20.9579 27.2952 22.2771 26.7593 23.2966 25.8825L23.3013 25.8872C23.3013 25.9015 23.3002 25.9146 23.299 25.9277C23.2978 25.9408 23.2966 25.9538 23.2966 25.9681Z" fill="white"/>
</svg>
